<svg xmlns="http://www.w3.org/2000/svg" viewBox="0 0 1020 218"><defs><style>      .cls-1 {        fill: #363636;      }      .cls-2 {        fill: #32302f;      }    </style></defs><g><g id="Layer_1"><g><path class="cls-1" d="M321.5,54.7h18.8v129.6h-21.8v-43c-7.5,7.8-18.1,13-30.2,13-27.3,0-49.3-22.2-49.3-50.6s21.8-50.6,49.3-50.6,23.9,5.6,31.4,13.8l1.9-12.1h0ZM319,103.6c0-16.9-12.4-29.5-29-29.5s-29,12.6-29,29.5,12.4,29.3,29,29.3,29-12.4,29-29.3Z"></path><path class="cls-1" d="M354.3,103.6c0-28.5,22.8-50.6,51.8-50.6s26.6,5.1,36,14.3l-15.2,15.5c-5.5-5.3-12.8-8.7-20.8-8.7-16.9,0-29.8,12.6-29.8,29.5s13,29.3,29.8,29.3,15.2-3.1,20.8-8.5l15.2,15.3c-9.2,9.2-21.6,14.5-36,14.5-29,0-51.8-22.2-51.8-50.6h0Z"></path><path class="cls-1" d="M446.7,103.6c0-28.5,22.5-50.6,51.1-50.6s51,22.2,51,50.6-22.3,50.6-51,50.6-51.1-22.2-51.1-50.6h0ZM526.8,103.6c0-16.9-12.6-29.5-29-29.5s-29.1,12.6-29.1,29.5,12.4,29.3,29.1,29.3,29-12.6,29-29.3Z"></path><path class="cls-1" d="M656.3,94.4v58.1h-21.6v-51.5c0-18.8-7.3-27.1-23.2-27.1s-25.9,10.6-25.9,29.7v48.9h-21.6V54.7h18.8l1.7,11.3c8.2-8.7,18.8-13,30.5-13,26.1,0,41.4,15.3,41.4,41.4h-.1Z"></path><path class="cls-1" d="M733,147.9c-6.1,4.3-14,6.3-22.8,6.3-19.1,0-30.5-11.8-30.5-30.9v-48.6h-14.8v-20.1h14.8v-17l21.6-3.9v21h26.6v20.1h-26.6v46.7c0,8,3.8,12.6,11.1,12.6s8-1,11.4-3.4l9.2,17.2h0Z"></path><path class="cls-1" d="M818.1,54.7h18.8v97.8h-18.8l-1.9-12.3c-7.7,8.4-18.6,14-31.4,14-27.4,0-49.3-22.2-49.3-50.6s22-50.6,49.3-50.6,23.9,5.6,31.4,13.8c0,0,1.9-12.1,1.9-12.1ZM815.5,103.6c0-16.9-12.4-29.5-29-29.5s-29,12.6-29,29.5,12.4,29.3,29,29.3,29-12.6,29-29.3Z"></path><path class="cls-1" d="M852,103.6c0-28.5,22.8-50.6,51.8-50.6s26.6,5.1,36,14.3l-15.2,15.5c-5.5-5.3-12.8-8.7-20.8-8.7-16.9,0-29.8,12.6-29.8,29.5s13,29.3,29.8,29.3,15.2-3.1,20.8-8.5l15.2,15.3c-9.2,9.2-21.6,14.5-36,14.5-29,0-51.8-22.2-51.8-50.6h0Z"></path><path class="cls-1" d="M1010.7,147.9c-6.1,4.3-14,6.3-22.8,6.3-19.1,0-30.5-11.8-30.5-30.9v-48.6h-14.8v-20.1h14.8v-17l21.6-3.9v21h26.6v20.1h-26.6v46.7c0,8,3.8,12.6,11.1,12.6s8-1,11.4-3.4l9.2,17.2h0Z"></path></g><g><path class="cls-2" d="M181.9,146.4c-17.8,0-32.3,14.5-32.3,32.3s14.5,32.3,32.3,32.3,32.3-14.5,32.3-32.3-14.5-32.3-32.3-32.3ZM181.9,193.1c-8,0-14.4-6.5-14.4-14.4s6.5-14.4,14.4-14.4,14.4,6.5,14.4,14.4-6.5,14.4-14.4,14.4Z"></path><path class="cls-2" d="M105.5,132.1h-19.7c-6.1,0-11-4.9-11-11v-14.8c.2-1.6.3-3,.3-4.3v-19.7c0-6.1,4.9-11,11-11h14.7c1.6.2,3,.3,4.3.3h19.7c6.1,0,11,4.9,11,11v19.4c0,17.7,14.4,32.1,32.1,32.1s32.1-14.4,32.1-32.1v-34.7c0-33.1-26.9-59.9-59.9-59.9h-30.3c-1.6-.2-3-.3-4.3-.3h-34.7c-33.1,0-59.9,26.9-59.9,59.9v30.5c-.2,1.6-.3,3-.3,4.3v34.7c0,33.1,26.9,59.9,59.9,59.9h35c17.7,0,32.1-14.4,32.1-32.1s-14.4-32.1-32.1-32.1h0ZM140.1,25.2c23.2,0,42.1,18.9,42.1,42.1v34.7c0,7.9-6.4,14.2-14.2,14.2s-14.2-6.4-14.2-14.2v-19.4c0-14.2-10.6-26.5-24.7-28.6-1.6-.2-2.9-.3-4.2-.3h-19.7c-.9,0-1.8,0-2.7-.3-6.7-1.3-11.5-7.2-11.5-14s6.4-14.2,14.2-14.2h35-.1ZM105.5,178.5h-35c-23.2,0-42.1-18.9-42.1-42.1v-5.8c4.5,2.3,9.4,3.5,14.6,3.5s10.7-1.4,15.4-4c3.8,11.7,14.8,19.8,27.4,19.8h19.7c7.9,0,14.2,6.4,14.2,14.2s-6.4,14.2-14.2,14.2v.2ZM70.8,24.9h5.7c-2.3,4.5-3.5,9.4-3.5,14.6s1.4,10.7,4,15.4c-10.3,3.4-17.9,12.4-19.4,23.3-.2,1.5-.3,2.8-.3,4.1v19.7c0,.9,0,1.8-.3,2.7-1.3,6.7-7.2,11.5-14,11.5s-14.2-6.4-14.2-14.2v-35c0-23.2,18.9-42.1,42.1-42.1h0Z"></path></g></g></g></svg>